<svg xmlns="http://www.w3.org/2000/svg" viewBox="0 0 512 512">
  <rect width="512" height="512" rx="112" fill="#0066cc"/>
  <g fill="#ffffff">
    <path d="M256 128c-44-26-96-30-140-18-10 3-16 12-16 22v210c0 14 14 24 27 20 40-11 86-7 125 16 4 2 8 2 12 0 39-23 85-27 125-16 13 4 27-6 27-20V154c0-10-6-19-16-22-44-12-96-8-140 18z" opacity="0.18"/>
    <path d="M256 150c-38-22-82-26-120-16-8 2-13 9-13 17v182c0 11 11 19 22 16 33-9 71-6 104 13 5 3 9 3 14 0 33-19 71-22 104-13 11 3 22-5 22-16V151c0-8-5-15-13-17-38-10-82-6-120 16z"/>
    <path d="M256 150v212" stroke="#0066cc" stroke-width="12" fill="none"/>
  </g>
</svg>
